<?xml version="1.0" standalone="no"?>
<!DOCTYPE svg PUBLIC "-//W3C//DTD SVG 20010904//EN"
 "http://www.w3.org/TR/2001/REC-SVG-20010904/DTD/svg10.dtd">
<svg version="1.0" xmlns="http://www.w3.org/2000/svg"
 width="248.000000pt" height="248.000000pt" viewBox="0 0 248.000000 248.000000"
 preserveAspectRatio="xMidYMid meet">
<metadata>
Created by potrace 1.14, written by Peter Selinger 2001-2017
</metadata>
<g transform="translate(0.000000,248.000000) scale(0.100000,-0.100000)"
fill="#000000" stroke="none">
<path d="M1162 2342 c-15 -10 -53 -15 -120 -16 -79 -1 -103 -5 -116 -19 -10
-9 -20 -17 -24 -18 -4 0 -21 -2 -38 -4 -31 -3 -229 -99 -240 -116 -3 -5 -29
-24 -57 -43 -64 -41 -142 -119 -168 -166 -10 -19 -38 -56 -62 -82 -59 -64
-162 -273 -177 -358 -6 -35 -17 -76 -25 -90 -13 -26 -14 -45 -17 -231 -1 -89
2 -113 19 -145 12 -24 19 -55 17 -79 -1 -32 12 -67 68 -178 38 -75 85 -158
104 -182 19 -25 34 -47 34 -50 0 -20 190 -214 225 -230 26 -12 45 -26 104 -77
8 -7 26 -13 40 -13 35 -2 71 -14 71 -25 0 -5 16 -12 35 -16 20 -3 43 -13 51
-21 8 -9 32 -16 53 -17 21 -1 50 -10 64 -19 32 -21 41 -21 70 -3 16 10 56 13
150 12 71 0 131 2 134 7 2 4 10 4 16 0 11 -7 45 -6 164 6 6 0 18 7 25 15 8 7
34 16 58 20 37 5 71 23 90 47 3 4 37 24 75 44 39 21 89 53 112 72 70 56 223
217 223 234 0 8 10 26 22 40 12 13 30 33 40 45 10 11 21 31 23 44 3 13 8 26
12 29 34 24 63 76 63 111 0 27 6 43 19 52 10 7 19 24 20 38 0 14 2 70 4 125 2
76 7 107 21 128 18 26 18 28 0 55 -14 21 -19 50 -20 127 -1 55 -5 109 -8 120
-37 134 -118 300 -180 369 -25 28 -53 66 -63 85 -10 20 -39 50 -64 66 -25 17
-75 57 -111 90 -49 45 -102 79 -204 131 l-139 70 -135 3 c-98 2 -139 6 -151
17 -19 17 -78 15 -107 -4z m108 -267 c5 -3 10 -1 10 5 0 6 5 8 11 4 6 -3 28
-6 49 -6 25 1 49 -7 71 -24 18 -13 29 -24 24 -24 -5 0 -4 -5 2 -11 6 -6 9 -18
6 -27 -9 -21 -80 -87 -112 -103 -14 -8 -51 -34 -81 -60 -30 -25 -69 -53 -86
-62 -17 -9 -52 -35 -79 -59 -48 -44 -48 -45 -52 -115 -5 -82 6 -113 42 -113
14 0 33 -8 43 -18 24 -24 50 -34 57 -21 4 5 11 6 18 2 6 -3 44 -7 84 -8 l74
-1 134 -139 135 -138 90 1 c81 0 96 3 156 33 36 18 68 37 70 41 18 29 110 -34
134 -92 11 -27 10 -33 -7 -53 -12 -13 -21 -39 -22 -66 -4 -60 -8 -81 -21 -96
-6 -7 -13 -23 -15 -34 -2 -12 -12 -34 -22 -49 -10 -15 -25 -40 -33 -56 -21
-41 -217 -234 -260 -255 -19 -10 -65 -35 -102 -55 -37 -20 -80 -36 -95 -36
-16 0 -38 -7 -50 -15 -16 -11 -61 -15 -214 -16 -107 -1 -199 -1 -205 0 -18 2
-85 72 -96 101 -5 14 -11 44 -13 68 -2 36 2 48 27 73 29 28 41 33 84 30 11 -1
32 8 47 20 20 15 45 22 85 24 34 2 73 12 97 24 21 12 45 21 52 21 14 0 15 1
17 118 2 64 -1 86 -14 100 -9 10 -20 29 -23 42 -10 38 -59 91 -86 93 -13 1
-41 19 -63 41 l-40 40 -99 2 c-79 2 -104 6 -119 19 -17 16 -45 18 -228 19
-172 1 -211 4 -224 16 -23 24 -36 53 -32 75 2 11 5 54 6 95 2 63 6 79 25 98
26 26 26 27 13 52 -8 15 -2 28 29 67 21 27 46 63 54 79 18 35 151 174 167 174
5 0 10 4 10 10 0 5 11 12 24 16 14 3 27 12 30 20 3 8 12 14 21 14 8 0 15 4 15
9 0 5 43 30 96 56 90 45 103 48 187 51 49 2 91 5 93 6 5 5 94 -1 104 -7z"/>
</g>
</svg>
